<svg xmlns:svg="http://www.w3.org/2000/svg" xmlns="http://www.w3.org/2000/svg" version="1" width="602.3" height="181.5"><style>.s0{fill-rule:evenodd;fill:#f90;}.s1{fill-rule:evenodd;fill:#221f1f;}</style><g transform="translate(144.53434,-649.87719)"><g transform="translate(7.081691,7.081144)"><path d="m222 784.7c-35 25.8-85.7 39.6-129.4 39.6-61.2 0-116.4-22.7-158.1-60.3-3.3-3-0.3-7 3.6-4.7 45 26.2 100.7 41.9 158.2 41.9 38.8 0 81.4-8 120.6-24.7 5.9-2.5 10.9 3.9 5.1 8.2M236.6 768.1 236.6 768.1 236.6 768.1 236.6 768.1c-4.5-5.7-29.6-2.7-40.8-1.4-3.4 0.4-4-2.6-0.9-4.7 20-14.1 52.8-10 56.7-5.3 3.8 4.7-1 37.6-19.8 53.4-2.9 2.4-5.6 1.1-4.4-2.1 4.2-10.5 13.7-34.2 9.2-39.9" class="s0"/><path d="m196.5 662.6 0-13.7c0-2.1 1.6-3.5 3.5-3.5l61.3 0c2 0 3.5 1.4 3.5 3.5l0 11.7c0 2-1.7 4.5-4.6 8.6l-31.7 45.3c11.8-0.3 24.3 1.5 34.9 7.5 2.4 1.4 3.1 3.4 3.3 5.3l0 14.6c0 2-2.2 4.3-4.5 3.1-18.8-9.9-43.9-11-64.7 0.1-2.1 1.2-4.4-1.2-4.4-3.1l0-13.9c0-2.2 0-6 2.3-9.4l36.8-52.7-32 0c-2 0-3.5-1.4-3.5-3.4M-27 748l-18.6 0M-27 748l-18.6 0M-27 748l-18.6 0M-27 748l-18.6 0c-1.8-0.1-3.2-1.5-3.3-3.2l0-95.7c0-1.9 1.6-3.4 3.6-3.4l17.4 0c1.8 0.1 3.3 1.5 3.4 3.2l0 12.5 0.3 0c4.5-12.1 13.1-17.7 24.5-17.7 11.7 0 19 5.6 24.2 17.7 4.5-12.1 14.8-17.7 25.7-17.7 7.8 0 16.4 3.2 21.6 10.5 5.9 8 4.7 19.7 4.7 30l0 60.4c0 1.9-1.6 3.5-3.6 3.5l-18.6 0c-1.9-0.1-3.4-1.6-3.4-3.5l0-50.7c0-4 0.4-14.1-0.5-17.9-1.4-6.4-5.6-8.2-11-8.2-4.5 0-9.2 3-11.1 7.8-1.9 4.8-1.7 12.9-1.7 18.3l0 50.7c0 1.9-1.6 3.5-3.6 3.5l-18.6 0c-1.9-0.1-3.4-1.6-3.4-3.5l0-50.7c0-10.7 1.8-26.4-11.5-26.4-13.4 0-12.9 15.3-12.9 26.4l0 50.7c0 1.9-1.6 3.5-3.6 3.5M317.5 643.7c27.7 0 42.6 23.8 42.6 54 0 29.2-16.5 52.3-42.6 52.3-27.2 0-41.9-23.8-41.9-53.4 0-29.8 15-52.9 41.9-52.9m0.2 19.5c-13.7 0-14.6 18.7-14.6 30.4 0 11.7-0.2 36.7 14.4 36.7 14.4 0 15.1-20.1 15.1-32.4 0-8.1-0.3-17.7-2.8-25.4-2.1-6.7-6.3-9.3-12.2-9.3M396 748l-18.6 0c-1.9-0.1-3.4-1.6-3.4-3.5l0-95.7c0.2-1.8 1.7-3.1 3.6-3.1l17.3 0c1.6 0.1 3 1.2 3.3 2.7l0 14.6 0.3 0c5.2-13.1 12.5-19.3 25.4-19.3 8.4 0 16.5 3 21.8 11.3 4.9 7.7 4.9 20.5 4.9 29.8l0 60.2c-0.2 1.7-1.8 3-3.6 3l-18.7 0c-1.7-0.1-3.1-1.4-3.3-3l0-52c0-10.5 1.2-25.8-11.7-25.8-4.5 0-8.7 3-10.8 7.7-2.6 5.8-3 11.7-3 18.1l0 51.5c0 1.9-1.7 3.5-3.6 3.5M147.7 702.3c0 7.3 0.2 13.3-3.5 19.8-3 5.2-7.7 8.5-12.9 8.5-7.2 0-11.4-5.5-11.4-13.5 0-15.9 14.2-18.8 27.7-18.8l0 4m18.8 45.4c-1.2 1.1-3 1.2-4.4 0.4-6.2-5.1-7.3-7.5-10.7-12.4-10.2 10.4-17.5 13.6-30.7 13.6-15.7 0-27.9-9.7-27.9-29 0-15.1 8.2-25.4 19.9-30.5 10.1-4.5 24.3-5.2 35.1-6.5l0-2.4c0-4.4 0.3-9.7-2.3-13.5-2.3-3.4-6.6-4.9-10.5-4.9-7.1 0-13.4 3.6-15 11.2-0.3 1.7-1.5 3.3-3.3 3.4l-18.1-1.9c-1.5-0.3-3.2-1.6-2.8-3.9 4.1-21.9 24-28.5 41.7-28.5 9.1 0 20.9 2.4 28.1 9.3 9.1 8.5 8.2 19.8 8.2 32.1l0 29c0 8.7 3.6 12.6 7 17.3 1.2 1.7 1.4 3.7-0.1 5-3.8 3.2-10.6 9.1-14.3 12.4l0-0.1M-96.7 702.3c0 7.3 0.2 13.3-3.5 19.8-3 5.2-7.7 8.5-12.9 8.5-7.2 0-11.3-5.5-11.3-13.5 0-15.9 14.2-18.8 27.7-18.8l0 4m18.8 45.4c-1.2 1.1-3 1.2-4.4 0.4-6.2-5.1-7.3-7.5-10.7-12.4-10.2 10.4-17.5 13.6-30.7 13.6-15.7 0-27.9-9.7-27.9-29 0-15.1 8.2-25.4 19.9-30.5 10.1-4.5 24.3-5.2 35.1-6.5l0-2.4c0-4.4 0.3-9.7-2.3-13.5-2.3-3.4-6.6-4.9-10.5-4.9-7.1 0-13.4 3.6-15 11.2-0.3 1.7-1.5 3.3-3.2 3.4l-18.1-1.9c-1.5-0.3-3.2-1.6-2.8-3.9 4.2-21.9 24-28.5 41.7-28.5 9.1 0 20.9 2.4 28.1 9.3 9.1 8.5 8.2 19.8 8.2 32.1l0 29c0 8.7 3.6 12.6 7 17.3 1.2 1.7 1.5 3.7-0.1 5-3.8 3.2-10.6 9.1-14.3 12.4l-0.1-0.1" class="s1"/></g></g></svg>