<svg xmlns="http://www.w3.org/2000/svg" viewBox="0 0 512 512"><style>.a{fill:#16A5A5;}.b{fill:#E59123;}.c{fill:#B941D6;}</style><path d="M93.4 276.8l-1.3 32.5 -18.9 21.7 7.7 55.3c35.5 30.4 81.6 48.8 131.9 48.8 69.7 0 131.1-35.1 167.6-88.7 -31.1 7.4-63.7 1.5-90.1-15.4l-43.9 34.4 -29.8-12.7 -15.8-66L171.8 267.1l-20.9-47.8 50-85v-37.5l78.6-56c-20.9-7.3-43.3-11.2-66.7-11.2 -93.6 0-172.4 63.4-195.7 149.6l43.8 80.1L93.4 276.8z" class="a"/><path d="M10 232.4c0 61.6 27.5 116.8 70.8 154l-7.7-55.3 18.9-21.7 1.3-32.5 -32.5-17.5 -43.8-80.1C12.5 196.1 10 213.9 10 232.4z" class="b"/><path d="M171.8 267.1l29.1 19.7 15.8 66 29.8 12.7 43.9-34.4c-16.1-10.3-30-24.7-39.8-42.8 -30.9-56.9-9.8-128.1 47.1-159 26.3-14.3 55.8-17.5 82.8-11.1 -24.3-35.6-59.6-63.1-101-77.5l-78.6 56v37.5l-50 85L171.8 267.1z" class="b"/><path d="M297.7 129.3c-56.9 30.9-78 102.1-47.1 159 9.8 18 23.6 32.5 39.8 42.8 26.4 16.9 58.9 22.8 90.1 15.4 2.6-0.6 5.1-1.3 7.6-2.1 7.3-2.2 14.5-5.3 21.5-9.1 7-3.8 13.4-8.2 19.3-13.1 42-35.1 54.9-96 27.8-145.9 -16.6-30.5-44.8-50.8-76.2-58.1C353.4 111.9 324 115 297.7 129.3L297.7 129.3zM277 274c-23-42.3-7.3-95.3 35-118.3 42.3-23 95.3-7.3 118.3 35 23 42.3 7.3 95.3-35 118.3C352.9 332 299.9 316.3 277 274z" class="c"/><circle cx="353.6" cy="232.4" r="87.2" class="a"/><path d="M388.1 344.4l71.8 132.2c2.9 5.4 9.7 7.4 15.1 4.5l21.2-11.5c5.4-2.9 7.4-9.7 4.5-15.1l-71.8-132.2c-5.9 4.9-12.3 9.3-19.3 13.1C402.6 339.2 395.4 342.2 388.1 344.4z" class="c"/><path d="M353.5 135.1c-16.1 0-32.1 4.1-46.3 11.8 -47.1 25.6-64.6 84.7-39 131.8 17 31.4 49.8 50.8 85.5 50.8 0 0 0 0 0 0 16.1 0 32.1-4.1 46.3-11.8 22.8-12.4 39.4-32.9 46.8-57.8s4.6-51.2-7.8-74C422 154.6 389.2 135.1 353.5 135.1zM427.6 254.3c-5.9 19.8-19.1 36.1-37.2 45.9 -11.3 6.1-24 9.4-36.8 9.4 0 0 0 0 0 0 -28.4 0-54.4-15.5-67.9-40.4 -20.3-37.4-6.4-84.4 31-104.7 11.3-6.1 24-9.4 36.8-9.4 28.4 0 54.4 15.5 67.9 40.4C431.3 213.6 433.5 234.5 427.6 254.3z"/><path d="M377.3 169.4l-0.5-0.2c-5.2-1.9-10.9 0.7-12.8 5.9 -1.9 5.2 0.7 10.9 5.9 12.8l0.4 0.2c1.1 0.4 2.3 0.6 3.5 0.6 4.1 0 7.9-2.5 9.4-6.5C385.1 177.1 382.5 171.4 377.3 169.4z"/><path d="M391.5 188.3c-4.3 3.5-4.9 9.8-1.4 14.1 1.9 2.3 3.6 4.8 5 7.4 6.1 11.3 7.4 24.2 3.6 36.5 -1.6 5.3 1.3 10.9 6.6 12.5 1 0.3 2 0.4 3 0.4 4.3 0 8.2-2.8 9.6-7.1 5.4-17.4 3.6-35.9-5.2-51.9 -2-3.8-4.4-7.3-7.1-10.6C402.1 185.4 395.8 184.8 391.5 188.3z"/><path d="M509.4 449.7L441.4 324.5c16-15.2 27.8-34.3 34.2-56 9.6-32.6 6-67-10.2-96.8 -16.9-31.1-45.6-53.3-78.9-62.2 -25.8-36.4-61.8-63.2-102.7-77.7 -0.6-0.3-1.3-0.5-2-0.7 -21.9-7.5-45.2-11.5-69-11.5 -97.8 0-180.3 66.3-205.1 156.2 -0.2 0.5-0.3 1.1-0.4 1.6C2.5 194.9 0 213.4 0 232.4c0 64 28.4 121.6 73.4 160.6 0.6 0.7 1.4 1.3 2.2 1.9 37.1 31.4 85 50.3 137.3 50.3 67.9 0 131.4-32.3 171.5-86.8l66.8 123c2.7 4.9 7.2 8.6 12.6 10.2 2 0.6 4 0.9 6 0.9 3.5 0 6.9-0.9 10-2.6l21.2-11.5C511.2 472.8 515 459.9 509.4 449.7zM447.8 181.2c13.7 25.2 16.7 54.2 8.6 81.6 -6.1 20.5-17.8 38.3-33.8 51.7 -0.1 0.1-0.3 0.2-0.4 0.3 -5.4 4.4-11.2 8.4-17.4 11.8 -15.7 8.5-33.3 13-51.1 13 -39.4 0-75.5-21.5-94.3-56.1 -13.7-25.2-16.7-54.2-8.6-81.6 8.1-27.5 26.5-50.1 51.6-63.8 15.7-8.5 33.3-13 51.1-13 8.4 0 16.7 1 24.6 2.9 0.2 0 0.4 0.1 0.5 0.1C407.8 135.1 433.1 154.1 447.8 181.2zM357.7 105.2c-1.4 0-2.8-0.1-4.2-0.1 -21 0-42 5.3-60.6 15.4 -29.9 16.2-51.6 43.1-61.3 75.7 -9.6 32.6-6 67 10.2 96.8 8.2 15 19.1 28 32 38.3l-28.8 22.6 -19.8-8.4 -14.6-61.1c-0.6-2.4-2-4.6-4.1-6l-26.7-18.1 -17.7-40.5 47.4-80.6c0.9-1.5 1.4-3.3 1.4-5.1v-32.3l70.1-49.9C310.3 63.1 336.7 81.3 357.7 105.2zM20 232.4c0-8.2 0.5-16.3 1.5-24.2L52.1 264.1c0.9 1.7 2.3 3.1 4 4l27 14.5 -0.9 22.7 -16.6 19.1c-1.9 2.2-2.8 5.1-2.4 7.9l3.6 25.8C37.7 324.4 20 280.4 20 232.4zM212.8 425.1c-46.5 0-89.2-16.6-122.6-44.1l-6.5-46.9 15.9-18.3c1.5-1.7 2.4-3.9 2.5-6.2l1.3-32.5c0.1-3.8-1.9-7.4-5.3-9.2l-29.9-16.1 -40.4-73.9C51.3 98.1 125.4 39.6 212.8 39.6c15 0 29.7 1.8 44 5.1L195.1 88.6c-2.6 1.9-4.2 4.9-4.2 8.1v34.8l-48.6 82.7c-1.6 2.8-1.8 6.1-0.5 9.1l20.9 47.8c0.8 1.7 2 3.2 3.6 4.3l25.9 17.5 14.9 62.2c0.7 3.1 2.9 5.6 5.8 6.9l29.8 12.7c1.3 0.5 2.6 0.8 3.9 0.8 2.2 0 4.4-0.7 6.2-2.1l38.5-30.2c18.8 10.6 40.2 16.4 62.6 16.4 1.3 0 2.7 0 4-0.1C321.3 401 268.7 425.1 212.8 425.1zM491.4 460.8l-21.2 11.5c-0.3 0.2-0.6 0.1-0.8 0.1s-0.5-0.2-0.7-0.5l-66.3-122c4.1-1.7 8.1-3.6 11.9-5.7 3.9-2.1 7.7-4.4 11.3-6.9l66.3 122C492.2 459.8 491.9 460.5 491.4 460.8z"/><path d="M74.5 137.9c-4.9-2.6-10.9-0.7-13.5 4.2l-0.4 0.8c-2.5 4.9-0.6 10.9 4.3 13.5 1.5 0.7 3 1.1 4.5 1.1 3.6 0 7.1-2 8.9-5.4l0.3-0.6C81.3 146.5 79.4 140.5 74.5 137.9z"/><path d="M160.2 72.1c-1.9-5.2-7.7-7.8-12.8-5.9C121.2 75.8 97.9 92.2 80 113.7c-3.5 4.2-3 10.5 1.3 14.1 1.9 1.6 4.1 2.3 6.4 2.3 2.9 0 5.7-1.2 7.7-3.6 15.7-18.8 36.1-33.2 58.9-41.6C159.5 83 162.1 77.2 160.2 72.1z"/></svg>