<svg xmlns="http://www.w3.org/2000/svg" viewBox="0 0 494.4 494.4"><circle cx="248.8" cy="404.4" r="51.2" fill="#08446D"/><path d="M284.8 368.4c20 20 20 52 0 72s-52 20-72 0" fill="#00233F"/><path d="M400.8 254.8c-6.4 0-12.8-2.4-17.6-7.2 -36-36.8-84.8-56.8-136-56.8s-100 20-136 56c-9.6 9.6-25.6 9.6-35.2 0s-9.6-25.6 0-35.2c45.6-45.6 107.2-71.2 172-71.2l0 0c64.8 0 125.6 25.6 172 71.2 9.6 9.6 9.6 25.6 0 35.2C414.4 251.6 407.2 254.8 400.8 254.8z" fill="#1789AD"/><path d="M247.2 166.8c-64.8 0-125.6 25.6-172 71.2 -1.6 1.6-2.4 3.2-4 4.8 0.8 1.6 2.4 3.2 4 4.8 9.6 9.6 25.6 9.6 35.2 0 36.8-36.8 84.8-56.8 136-56.8s100 20 136 56.8c4.8 4.8 11.2 7.2 17.6 7.2s12.8-2.4 17.6-7.2c1.6-1.6 2.4-3.2 4-4.8 -0.8-1.6-2.4-3.2-4-4.8C372.8 191.6 312 166.8 247.2 166.8z" fill="#0D6E8C"/><path d="M469.6 180.4c-6.4 0-12.8-2.4-17.6-7.2 -55.2-54.4-127.2-84.8-204.8-84.8S97.6 118.8 42.4 173.2c-9.6 9.6-25.6 9.6-35.2 0s-9.6-25.6 0-35.2c64-64 149.6-99.2 240-99.2l0 0c90.4 0 176 35.2 240 99.2 9.6 9.6 9.6 25.6 0 35.2C482.4 178 476 180.4 469.6 180.4z" fill="#23C181"/><path d="M247.2 65.2c-90.4 0-176 35.2-240 99.2 -1.6 1.6-2.4 2.4-3.2 4 0.8 1.6 2.4 3.2 3.2 4 9.6 9.6 25.6 9.6 35.2 0 55.2-53.6 127.2-84 204.8-84s149.6 30.4 204.8 84.8c4.8 4.8 11.2 7.2 17.6 7.2s12.8-2.4 17.6-7.2c1.6-1.6 2.4-2.4 3.2-4 -0.8-1.6-2.4-3.2-3.2-4C423.2 100.4 337.6 65.2 247.2 65.2z" fill="#0CAA7D"/><path d="M339.2 330.8c-6.4 0-12.8-2.4-17.6-7.2 -20-20-46.4-30.4-74.4-30.4s-54.4 11.2-74.4 30.4c-9.6 9.6-25.6 9.6-35.2 0s-9.6-25.6 0-35.2c29.6-29.6 68-45.6 109.6-45.6l0 0c41.6 0 80 16 109.6 45.6 9.6 9.6 9.6 25.6 0 35.2C352 328.4 345.6 330.8 339.2 330.8z" fill="#E57520"/><path d="M247.2 270.8c-41.6 0-80 16-109.6 45.6 -0.8 0.8-2.4 2.4-3.2 4 0.8 1.6 1.6 2.4 3.2 4 9.6 9.6 25.6 9.6 35.2 0 20-20 46.4-30.4 74.4-30.4s54.4 11.2 74.4 30.4c4.8 4.8 11.2 7.2 17.6 7.2s12.8-2.4 17.6-7.2c0.8-0.8 2.4-2.4 3.2-4 -0.8-1.6-1.6-2.4-3.2-4C327.2 286.8 288.8 270.8 247.2 270.8z" fill="#DB5207"/></svg>