<svg viewBox="0 -56 512 512" xmlns="http://www.w3.org/2000/svg"><path d="M240.469 311.61v40.077l32.062 32.063v8.016h-128.25v-8.016l32.063-32.063V311.61" fill="#506573"/><path d="M8.016 7.016h400.78v304.593H8.017zm0 0" fill="#8ca4b8"/><path d="M48.094 47.094h320.625V271.53H48.094zm0 0" fill="#b8ecff"/><g fill="#fff"><path d="M232.453 223.938h16.031v15.027h-16.03zm0 0M200.39 223.938h16.032v15.027H200.39zm0 0M168.328 223.938h16.031v15.027h-16.03zm0 0"/></g><path d="M48.094 47.094H72.14V271.53H48.094zm0 0" fill="#6bd7ff"/><path d="M328.64 79.156h176.344v312.61H328.641zm0 0" fill="#506573"/><path d="M368.719 351.688h96.187v40.078H368.72zm0 0M328.64 127.25h176.344v80.156H328.641zm0 0" fill="#8ca4b8"/><path d="M432.844 283.555c0 8.851-7.176 16.03-16.031 16.03-8.852 0-16.032-7.179-16.032-16.03 0-8.856 7.18-16.032 16.031-16.032 8.856 0 16.032 7.176 16.032 16.032zm0 0" fill="#ff9580"/><path d="M40.078 279.547h264.516v-15.031H55.109V55.109h313.61V40.08H40.079zm0 0"/><path d="M87.172 127.25V87.172h41.078V72.14H72.14v55.109zm0 0"/><path d="M415.813 72.14V0H0v319.625h168.328v28.95l-32.062 32.062v19.144h143.28v-19.144l-32.062-32.063v-28.949h73.141v80.156H512V72.141zM262.405 384.75h-108l25.051-25.047h57.898zm-79.047-40.078v-25.047h49.094v25.047zm137.266-40.078H15.031V15.03h385.75v57.11h-80.156zm136.266 80.156h-81.157v-25.047h81.157zm40.078 0h-25.047v-40.078H360.703v40.078h-25.047V215.422H496.97zm0-184.36H335.656v-25.046H496.97zm0-40.077H335.656v-25.047H496.97zm0-40.079H335.656V87.172H496.97zm0 0"/><path d="M416.813 307.102c12.984 0 23.546-10.563 23.546-23.547 0-12.985-10.562-23.547-23.546-23.547-12.981 0-23.543 10.562-23.543 23.547 0 12.984 10.562 23.547 23.543 23.547zm0-32.063c4.699 0 8.519 3.82 8.519 8.516 0 4.695-3.82 8.515-8.52 8.515-4.695 0-8.515-3.82-8.515-8.515 0-4.696 3.82-8.516 8.515-8.516zm0 0"/></svg>