<svg xmlns="http://www.w3.org/2000/svg" viewBox="0 0 512 512"><style>.a{fill:#C7C5CC;}.b{fill:#FFD92D;}.c{fill:#956EC4;}.d{fill:#FFF;}.e{fill:#1C2042;}</style><path d="M66.3 464.6V199.1c0-104.7 84.9-189.7 189.7-189.7h0c104.7 0 189.7 84.9 189.7 189.7v263 1.2c0 17.7-11.5 34-28.7 38.1 -24.7 5.8-46.6-12.4-47.2-35.9 -0.4-19-14.1-36.1-32.9-38.5 -22.5-2.9-41.7 13.9-42.9 35.5 -1.1 19.4-13.7 37.3-33 39.7 -22.5 2.9-41.7-13.9-42.9-35.5 -1.1-19.4-13.7-37.3-33-39.7 -22.5-2.9-41.8 14-42.9 35.7 -0.9 19-13.2 36.5-32 39.4C86.7 505.7 66.3 487.5 66.3 464.6z" fill="#E0E0E3"/><path d="M279 427c-22.5-2.9-41.7 13.9-42.9 35.5 -0.5 9.6-3.9 18.8-9.5 26 7.9 9.8 20.6 15.5 34.5 13.7 19.3-2.5 31.9-20.3 33-39.7 0.5-8.4 3.6-16 8.6-22C296.8 433.3 288.5 428.2 279 427z" class="a"/><path d="M127.2 427C104.7 424.1 85.4 441 84.3 462.7c-0.5 9.6-3.8 18.8-9.4 25.9 8.1 9.9 21.2 15.7 35.4 13.5 18.8-2.9 31-20.4 32-39.4 0.4-8.3 3.5-15.9 8.4-22C145 433.4 137 428.3 127.2 427z" class="a"/><path d="M256 9.4h0c-9.8 0-19.5 0.8-29 2.2 91 13.9 160.7 92.6 160.7 187.5v263 1.2c0 9.5-3.3 18.6-9.1 25.6 8.8 10.4 23 16.1 38.3 12.5 17.2-4.1 28.7-20.4 28.7-38.1v-1.2V199.1C445.7 94.4 360.7 9.4 256 9.4z" class="a"/><circle cx="186.9" cy="217.5" r="44.7" class="b"/><circle cx="322.4" cy="217.5" r="44.7" class="b"/><circle cx="339.4" cy="235.2" r="20.8" class="c"/><circle cx="201.7" cy="235.8" r="20.8" class="c"/><path d="M107.9 384.5c-5.2 0-9.4-4.2-9.4-9.4v-42.7c0-5.2 4.2-9.4 9.4-9.4s9.4 4.2 9.4 9.4v42.7C117.3 380.3 113.1 384.5 107.9 384.5z" class="d"/><path d="M107.9 311.4c-5.2 0-9.4-4.2-9.4-9.4v-5.2c0-5.2 4.2-9.4 9.4-9.4s9.4 4.2 9.4 9.4v5.2C117.3 307.2 113.1 311.4 107.9 311.4z" class="d"/><path d="M132.8 217.5c0 31.4 25.5 56.9 56.9 56.9s56.9-25.5 56.9-56.9 -25.5-56.9-56.9-56.9S132.8 186.1 132.8 217.5zM199.1 235.8c0-4.9 4-8.9 8.9-8.9 4.9 0 8.9 4 8.9 8.9 0 4.9-4 8.9-8.9 8.9C203.1 244.7 199.1 240.8 199.1 235.8zM227.6 216.1c-5-5-12-8.1-19.6-8.1 -15.3 0-27.8 12.5-27.8 27.8 0 7.6 3.1 14.6 8.1 19.6 -20.3-0.7-36.6-17.5-36.6-37.9 0-20.9 17-38 38-38C210.1 179.5 226.8 195.8 227.6 216.1z" class="e"/><path d="M265.5 217.5c0 31.4 25.5 56.9 56.9 56.9 31.4 0 56.9-25.5 56.9-56.9s-25.5-56.9-56.9-56.9C291 160.6 265.5 186.1 265.5 217.5zM331.8 236.7c0-5.4 4.4-9.8 9.8-9.8 5.4 0 9.8 4.4 9.8 9.8s-4.4 9.8-9.8 9.8C336.2 246.6 331.8 242.2 331.8 236.7zM360.3 214.9c-5-4.3-11.5-6.9-18.6-6.9 -15.8 0-28.7 12.9-28.7 28.7 0 7.1 2.6 13.6 6.9 18.6 -19.7-1.3-35.4-17.8-35.4-37.9 0-20.9 17-38 38-38C342.5 179.5 358.9 195.2 360.3 214.9z" class="e"/><path d="M66.3 349.5c5.2 0 9.4-4.2 9.4-9.4V199.1c0-99.4 80.8-180.2 180.2-180.2 99.4 0 180.2 80.8 180.2 180.2 0 5.2 4.2 9.4 9.4 9.4 5.2 0 9.4-4.2 9.4-9.4C455.1 89.3 365.8 0 256 0 146.2 0 56.9 89.3 56.9 199.1v140.9C56.9 345.2 61.1 349.5 66.3 349.5z" class="e"/><path d="M445.7 330.6c-5.2 0-9.4 4.2-9.4 9.4v123.3c0 13.8-9 26-21.4 28.9 -8.8 2.1-17.5 0.3-24.5-5.1 -6.8-5.3-10.9-13.3-11.1-21.9 -0.6-24.2-18.3-44.7-41.1-47.7 -13.3-1.7-26.3 2-36.5 10.5 -10.1 8.4-16.3 20.7-17 33.8 -1 18.3-13.2 29.4-24.7 30.9 -8.1 1-15.9-1.2-22-6.3 -6.1-5.1-9.8-12.5-10.2-20.3 -1.4-25.3-18.7-45.7-41.2-48.6 -13.4-1.7-26.4 2.1-36.6 10.6 -10.1 8.5-16.3 20.8-16.9 34 -0.7 13.4-9.1 28.2-24 30.5 -8.5 1.3-16.7-1-23.1-6.5 -6.3-5.4-9.9-13.3-9.9-21.6v-68.9c0-5.2-4.2-9.4-9.4-9.4s-9.4 4.2-9.4 9.4v68.9c0 13.8 6 26.9 16.5 36 10.5 9 24.5 13 38.3 10.8 22.3-3.4 38.7-23.3 40-48.2 0.4-7.9 4.1-15.3 10.2-20.4 6.2-5.2 14-7.4 22.1-6.4 11.5 1.5 23.7 12.6 24.7 30.9 0.7 13.1 6.9 25.4 17 33.8 8.6 7.2 19.2 11 30.2 11 2.1 0 4.2-0.1 6.3-0.4 22.5-2.9 39.8-23.3 41.2-48.6 0.4-7.9 4.2-15.3 10.2-20.3 6.1-5.1 14-7.4 22-6.3 13.7 1.8 24.3 14.4 24.7 29.4 0.3 14.3 7 27.6 18.4 36.4 11.4 8.8 26.1 11.9 40.4 8.5 20.8-4.9 35.9-24.8 35.9-47.3v-123.3C455.1 334.8 450.9 330.6 445.7 330.6z" class="e"/><path d="M445.7 249.4c-5.2 0-9.4 4.2-9.4 9.4v14c0 5.2 4.2 9.4 9.4 9.4 5.2 0 9.4-4.2 9.4-9.4v-14C455.1 253.7 450.9 249.4 445.7 249.4z" class="e"/></svg>