<svg xmlns="http://www.w3.org/2000/svg" width="572" height="572" viewBox="0 0 571.7 571.7"><path d="M288.2 209.4c44.6 0 78.4 13.3 111.1 26.1v-58.4c0-16.9-13.7-30.6-30.6-30.6H207.6c-16.9 0-30.6 13.7-30.6 30.6v58.4c0 0 0 0 0 0C209.8 222.7 243.6 209.4 288.2 209.4z"/><path d="M56.2 324.9h45.7c16.1 0 29.3 13.1 29.3 29.3v40h309.3v-40c0-16.1 13.1-29.3 29.3-29.3h40.7v-0.6h32.8c0 0-1.1-42.9-23-45.1 -21.9-2.2-64.6-3.3-104-17.5 -5.7-2.1-11.3-4.2-17-6.4 -33.5-13.1-67.1-27.5-111.1-27.5 -44.1 0-77.7 14.5-111.3 27.6 -5.6 2.2-11.2 4.3-16.8 6.4 -39.4 14.2-82.1 15.3-104 17.5 -21.9 2.2-23 45.1-23 45.1H56.2V324.9zM172.9 370c-7.1 0-13.4-3.6-17.3-9h34.6C186.3 366.4 180 370 172.9 370zM215.1 348.7c0-11.7 9.5-21.2 21.2-21.2s21.2 9.5 21.2 21.2l0 0H215.1L215.1 348.7zM357.1 348.7L357.1 348.7h-42.4l0 0c0-11.7 9.5-21.2 21.2-21.2C347.6 327.5 357.1 337 357.1 348.7zM236.3 370c-7.1 0-13.4-3.6-17.3-9h34.6C249.8 366.4 243.5 370 236.3 370zM335.9 370c-7.1 0-13.4-3.6-17.3-9h34.6C349.3 366.4 343 370 335.9 370zM399.3 370c-7.1 0-13.4-3.6-17.3-9h34.6C412.8 366.4 406.5 370 399.3 370zM420.5 348.7L420.5 348.7h-42.4l0 0c0-11.7 9.5-21.2 21.2-21.2C411 327.5 420.5 337 420.5 348.7zM254.7 247.4h67.1c9.1 0 16.7 6.7 18.1 15.5 0.2 1 0.3 1.9 0.3 2.9 0 0-8.2 39.1-18.4 39.1h-67.1c-10.1 0-18.4-39.1-18.4-39.1 0-1 0.1-2 0.3-2.9C238 254.1 245.5 247.4 254.7 247.4zM151.7 348.7c0-11.7 9.5-21.2 21.2-21.2s21.2 9.5 21.2 21.2l0 0H151.7L151.7 348.7z"/><path d="M17 425.1h84.9c7.9 0 14.5-5.4 16.4-12.6 0.4-1.4 0.6-2.9 0.6-4.4v-4.8 -9.2 -40c0-9.4-7.6-17-17-17H56.2h-9.2H17c-0.9 0-1.7 0.1-2.5 0.3C6.3 338.6 0 345.6 0 354.1v54C0 417.5 7.6 425.1 17 425.1z"/><path d="M510.4 337.1h-40.7c-9.4 0-17 7.6-17 17v40 9.2 4.8c0 1.5 0.3 3 0.6 4.4 1.9 7.3 8.5 12.7 16.4 12.7h84.9c9.4 0 17-7.6 17-17v-54c0-6.8-4-12.6-9.7-15.3 -2.2-1.1-4.7-1.7-7.3-1.7h-35H510.4z"/><path d="M260.9 299.5h54.7c8.3 0 15-31.9 15-31.9 0-1.7-0.3-3.3-0.9-4.8 -2-5.9-7.5-10.2-14.1-10.2h-54.7c-6.6 0-12.1 4.3-14.1 10.2 -0.5 1.5-0.9 3.1-0.9 4.8C245.9 267.7 252.6 299.5 260.9 299.5z"/></svg>