<svg xmlns="http://www.w3.org/2000/svg" viewBox="0 0 512 512"><style>.a{fill:#B5E489;}.b{opacity:0.1;}.c{fill:#54B88B;}.d{fill:#FF6E6E;}.e{fill:#FBDD56;}</style><path d="M437.3 207.4c-8.5 18-26 28.9-36.4 34.1 -4.4 2.2-9.7-0.3-10.8-5.1 -2.6-11.3-5.1-31.8 3.4-49.7 8.5-17.9 25.9-28.9 36.3-34.1 4.5-2.2 9.8 0.3 10.9 5.2C443.2 169.1 445.8 189.5 437.3 207.4z" class="a"/><path d="M437.3 207.4c-8.5 18-26 28.9-36.4 34.1 -4.4 2.2-9.7-0.3-10.8-5.1 -2.6-11.3-5.1-31.8 3.4-49.7 8.5-17.9 25.9-28.9 36.3-34.1 4.5-2.2 9.8 0.3 10.9 5.2C443.2 169.1 445.8 189.5 437.3 207.4z" class="b"/><path d="M407.8 220.6c-1.1 0-2.2-0.2-3.2-0.7 -3.7-1.8-5.3-6.2-3.6-10l15.2-32.1c1.8-3.7 6.2-5.3 10-3.6 3.7 1.8 5.3 6.2 3.6 10l-15.2 32.1C413.3 219 410.6 220.6 407.8 220.6z" class="b"/><path d="M222.4 201c-14.1 14.1-34.2 18.5-45.7 19.9 -4.9 0.6-9-3.6-8.4-8.4 1.4-11.5 5.8-31.6 19.9-45.7 14-14 34.1-18.5 45.6-19.9 5-0.6 9.1 3.6 8.5 8.5C240.9 166.9 236.4 186.9 222.4 201z" class="c"/><path d="M222.4 201c-14.1 14.1-34.2 18.5-45.7 19.9 -4.9 0.6-9-3.6-8.4-8.4 1.4-11.5 5.8-31.6 19.9-45.7 14-14 34.1-18.5 45.6-19.9 5-0.6 9.1 3.6 8.5 8.5C240.9 166.9 236.4 186.9 222.4 201z" class="b"/><path d="M192.7 203.9c-1.9 0-3.8-0.7-5.3-2.2 -2.9-2.9-2.9-7.7 0-10.6l25.1-25.1c2.9-2.9 7.7-2.9 10.6 0s2.9 7.7 0 10.6l-25.1 25.1C196.5 203.2 194.6 203.9 192.7 203.9z" class="b"/><path d="M96.7 190.1c14.1 14.1 18.5 34.2 19.9 45.7 0.6 4.9-3.6 9-8.4 8.4 -11.5-1.4-31.6-5.8-45.7-19.9 -14-14-18.5-34.1-19.9-45.6 -0.6-5 3.6-9.1 8.5-8.5C62.7 171.6 82.7 176 96.7 190.1z" class="c"/><path d="M92.2 227.3c-1.9 0-3.8-0.7-5.3-2.2l-25.1-25.1c-2.9-2.9-2.9-7.7 0-10.6 2.9-2.9 7.7-2.9 10.6 0l25.1 25.1c2.9 2.9 2.9 7.7 0 10.6C96 226.5 94.1 227.3 92.2 227.3z" class="b"/><path d="M284.1 245c-3.6-0.7-6.6-3.1-8.1-6.5 -6.6-15.3-21.8-26-39.4-26 -4.9 0-9.6 0.8-14 2.3 -4.7 1.6-9.9-0.2-12.7-4.3 -14.3-20.8-38.2-34.4-65.3-34.4 -37.3 0-68.5 25.7-77 60.4 -1 4.3-4.6 7.4-9 8 -28.8 4.6-50.9 29.5-51.1 59.5 -0.2 33.6 28 61.1 61.6 61.1h202.3c33.3 0 61.1-26.5 61.6-59.8C333.4 275.6 312.2 250.5 284.1 245z" class="c"/><path d="M479.8 267.1c0.9-4 1.3-8.2 1-12.5 -1.4-21.8-19.1-39.3-40.9-40.5 -8.6-0.4-16.6 1.6-23.5 5.5 -4.2 2.3-9.4 1.5-12.8-1.9 -15.7-15.9-37.5-25.7-61.5-25.7 -39.1 0-72.1 25.9-82.9 61.5 -1.4 4.6-5.6 7.6-10.4 7.5 0 0-0.1 0-0.1 0 -29 0-52.5 23.7-52.1 52.8 0.4 28.6 24.2 51.4 52.9 51.4H455.9c26.5 0 48.6-21.2 48.7-47.7 0-16.2-8-30.6-20.4-39.3C480.5 275.8 478.9 271.4 479.8 267.1z" class="a"/><circle cx="254.1" cy="315.9" r="13.2" class="d"/><circle cx="313.3" cy="270.7" r="13.2" class="d"/><circle cx="369.9" cy="324.7" r="13.2" class="d"/><circle cx="402.2" cy="257.5" r="13.2" class="d"/><circle cx="462.3" cy="313.8" r="13.2" class="d"/><path d="M312 280.3c-12.8-25-7.4-72.1 11.2-86.7 -31.5 6.1-56.9 29.3-66.1 59.6 -1.4 4.6-5.6 7.8-10.5 7.8h-0.1c-29 0-52.5 23.7-52.1 52.8 0.4 28.6 24.2 51.4 52.9 51.4h77.9c-33.9-10.5-26.1-53.1-13.7-73.1C313.7 288.6 313.9 284.1 312 280.3z" class="b"/><circle cx="137.6" cy="234.2" r="13.2" class="e"/><circle cx="64.5" cy="293.6" r="13.2" class="e"/><circle cx="155" cy="320" r="13.2" class="e"/><path d="M142.4 176.2c-36.3 1-66.5 26.3-74.8 60.3 -1 4.3-4.6 7.4-9 8.1C29.8 249.2 7.7 274.1 7.5 304.1 7.3 338 35.3 365.3 69.1 365.3h66.1c-28.8-16.6-31.5-60.1-13-81.6 4.1-4.7 4.4-11.8 0.8-16.9C103.9 239.1 113.8 191.7 142.4 176.2z" class="b"/><path d="M233.4 315.9c0 11.4 9.3 20.7 20.7 20.7 11.4 0 20.7-9.3 20.7-20.7s-9.3-20.7-20.7-20.7C242.6 295.1 233.4 304.4 233.4 315.9zM259.8 315.9c0 3.1-2.6 5.7-5.7 5.7 -3.1 0-5.7-2.6-5.7-5.7s2.6-5.7 5.7-5.7C257.2 310.1 259.8 312.7 259.8 315.9zM402.2 278.2c11.4 0 20.7-9.3 20.7-20.7 0-11.4-9.3-20.7-20.7-20.7s-20.7 9.3-20.7 20.7S390.8 278.2 402.2 278.2zM402.2 251.8c3.1 0 5.7 2.6 5.7 5.7 0 3.1-2.6 5.7-5.7 5.7 -3.1 0-5.7-2.6-5.7-5.7C396.5 254.4 399 251.8 402.2 251.8zM369.9 345.4c11.4 0 20.7-9.3 20.7-20.7s-9.3-20.7-20.7-20.7c-11.4 0-20.7 9.3-20.7 20.7C349.2 336.1 358.5 345.4 369.9 345.4zM369.9 318.9c3.1 0 5.7 2.6 5.7 5.7 0 3.1-2.6 5.7-5.7 5.7 -3.1 0-5.7-2.6-5.7-5.7C364.2 321.5 366.8 318.9 369.9 318.9zM483 313.8c0-11.4-9.3-20.7-20.7-20.7 -11.4 0-20.7 9.3-20.7 20.7s9.3 20.7 20.7 20.7C473.7 334.5 483 325.3 483 313.8zM456.6 313.8c0-3.1 2.6-5.7 5.7-5.7 3.1 0 5.7 2.6 5.7 5.7s-2.6 5.7-5.7 5.7C459.1 319.5 456.6 317 456.6 313.8zM134.3 320c0 11.4 9.3 20.7 20.7 20.7s20.7-9.3 20.7-20.7c0-11.4-9.3-20.7-20.7-20.7S134.3 308.6 134.3 320zM155 314.3c3.1 0 5.7 2.6 5.7 5.7s-2.6 5.7-5.7 5.7c-3.1 0-5.7-2.6-5.7-5.7C149.3 316.9 151.8 314.3 155 314.3zM137.6 213.4c-11.4 0-20.7 9.3-20.7 20.7 0 11.4 9.3 20.7 20.7 20.7 11.4 0 20.7-9.3 20.7-20.7C158.3 222.7 149 213.4 137.6 213.4zM137.6 239.9c-3.1 0-5.7-2.6-5.7-5.7s2.6-5.7 5.7-5.7c3.1 0 5.7 2.6 5.7 5.7C143.3 237.3 140.7 239.9 137.6 239.9zM64.5 314.3c11.4 0 20.7-9.3 20.7-20.7s-9.3-20.7-20.7-20.7 -20.7 9.3-20.7 20.7C43.8 305 53.1 314.3 64.5 314.3zM64.5 287.9c3.1 0 5.7 2.6 5.7 5.7s-2.6 5.7-5.7 5.7c-3.1 0-5.7-2.6-5.7-5.7C58.8 290.5 61.4 287.9 64.5 287.9zM313.3 250c-11.4 0-20.7 9.3-20.7 20.7 0 11.4 9.3 20.7 20.7 20.7s20.7-9.3 20.7-20.7C334 259.3 324.7 250 313.3 250zM313.3 276.4c-3.1 0-5.7-2.6-5.7-5.7 0-3.1 2.6-5.7 5.7-5.7s5.7 2.6 5.7 5.7C319 273.9 316.4 276.4 313.3 276.4zM488.4 272.1c-1.1-0.7-1.6-2.1-1.3-3.4 1.1-4.8 1.5-9.7 1.2-14.6 -1.5-24-19.5-43.3-42.8-46.9 7.7-19.3 4.9-40.1 2.5-51.1 -1-4.6-4.1-8.4-8.3-10.4 -4.2-2-9.1-2-13.3 0.2 -10.7 5.4-30.1 17.4-39.7 37.6 -1.5 3.3-2.8 6.7-3.8 10.4 -1.6-0.8-3.3-1.5-5-2.2 -3.8-1.6-8.2 0.2-9.8 4.1 -1.6 3.8 0.2 8.2 4.1 9.8 9.8 4 18.6 9.9 26.1 17.5 5.8 5.8 14.7 7.1 21.8 3.2 5.9-3.3 12.6-4.9 19.4-4.5 17.9 0.9 32.7 15.6 33.8 33.5 0.2 3.5-0.1 7-0.8 10.3 -1.7 7.3 1.2 14.7 7.3 19 10.8 7.6 17.2 19.9 17.2 33.1 0 22.2-18.5 40.2-41.2 40.2H249.5c-24.7 0-45.1-19.7-45.4-44 -0.2-12 4.4-23.4 12.9-31.9 8.5-8.6 19.7-13.3 31.7-13.3 0 0 0.1 0 0.1 0 8.2 0 15.2-5.2 17.5-12.9 8.8-28.9 33.7-50.6 63.5-55.2 4.1-0.6 6.9-4.5 6.3-8.6s-4.5-6.9-8.6-6.3c-22.7 3.5-42.9 15.3-57.3 32.3 -9.2-8.3-21-13-33.7-13 -2.8 0-5.5 0.2-8.3 0.7 15.3-15.8 20-37.7 21.5-49.4 0.6-4.7-1-9.3-4.3-12.6 -3.3-3.3-7.9-4.9-12.6-4.3 -11.9 1.5-34.2 6.3-50 22 -3.5 3.5-6.7 7.6-9.5 12.2 -9.1-3.2-18.9-4.9-28.8-4.9 -16.7 0-32.4 4.7-45.8 13 -15.5-13.3-35.6-17.6-46.7-19 -4.7-0.6-9.2 1-12.6 4.3 -3.3 3.3-4.9 7.9-4.3 12.6 1.5 11.9 6.3 34.2 22 50 1.1 1.1 2.3 2.2 3.6 3.3 -0.2 0.6-0.3 1.3-0.5 1.9 -0.3 1.2-1.4 2.2-2.8 2.4 -33 5.3-57.2 33.4-57.4 66.9 -0.1 15.2 4.8 29.6 14.3 41.8 1.5 1.9 3.7 2.9 5.9 2.9 1.6 0 3.2-0.5 4.6-1.6 3.3-2.5 3.9-7.3 1.3-10.5 -7.4-9.5-11.2-20.7-11.1-32.4 0.2-26.1 19-48 44.7-52.2 7.4-1.2 13.3-6.5 15.1-13.7 0.5-1.9 1-3.9 1.7-5.7 0-0.1 0.1-0.2 0.1-0.2 4.8-14.1 13.7-26.1 25.1-34.6 0.4-0.3 0.9-0.6 1.3-0.9 11.8-8.4 26.2-13.2 41.6-13.2 23.6 0 45.7 11.6 59.1 31.1 0 0.1 0.1 0.1 0.1 0.2 0 0 0.1 0.1 0.1 0.1 4.8 6.7 13.4 9.5 21.1 6.8 3.7-1.3 7.6-1.9 11.5-1.9 9.5 0 18.3 3.7 24.9 10.2 -3.9 6.5-7.1 13.6-9.4 21.1 -0.4 1.3-1.7 2.2-3.2 2.2 0 0-0.1 0-0.1 0 -16.1 0-31.1 6.3-42.4 17.7 -11.3 11.4-17.4 26.6-17.2 42.7 0.2 17.4 8.1 33 20.5 43.8H69.1c-5 0-9.9-0.7-14.7-2 -4-1.1-8.1 1.2-9.3 5.2 -1.1 4 1.2 8.1 5.2 9.3 6.1 1.7 12.4 2.6 18.8 2.6h386.7c30.9 0 56.1-24.8 56.2-55.2C512 299.5 503.2 282.5 488.4 272.1zM430.5 204.2c-0.5 1.1-1 2.1-1.7 3.1 -5.6 1-11.1 2.9-16.1 5.7 -1.2 0.7-2.7 0.4-3.8-0.7 -3.9-3.9-8.1-7.5-12.6-10.6 0.9-4.3 2.2-8.3 3.9-11.9 7.6-16.1 23.9-26.1 32.9-30.6 0.1 0 0.1 0 0.1 0 0.1 0 0.1 0.1 0.1 0.1C435.6 169.2 438.1 188.1 430.5 204.2zM66.4 217.6C54.9 205 51.2 187.4 50 177.8c0-0.1 0-0.1 0-0.1 0 0 0.1 0 0.1 0 8.7 1.1 24 4.2 36.2 13.4C78.1 198.4 71.3 207.4 66.4 217.6zM217.1 195.7c-1.7 1.7-3.5 3.2-5.5 4.7 -6.9-8.4-15.2-15.3-24.4-20.5 1.9-2.9 4-5.5 6.3-7.8 12.6-12.6 31.2-16.5 41.2-17.8 0.1 0 0.1 0 0.1 0 0 0 0 0.1 0 0.1C233.6 164.4 229.7 183 217.1 195.7z"/></svg>