<svg xmlns="http://www.w3.org/2000/svg" viewBox="0 0 496 496"><style>.a{fill:#E23C0A;}</style><path d="M436.4 184.5c-14.2 0-27.3 5-37.5 13.3 -36.4-22.6-82.5-36.3-131.9-39.2l25.8-80.8 70.9 16.5c1.9 25.6 23.4 45.8 49.7 45.8 27.5 0 49.9-22.2 49.9-49.4 0-27.2-22.4-49.4-49.9-49.4 -19.2 0-35.9 10.8-44.2 26.7L286.7 48.8c-6.9-1.6-13.9 2.3-16 9l-32 100.3c-53.3 1.3-103.4 15-142.4 38.9 -10.1-7.8-22.8-12.5-36.6-12.5C26.8 184.5 0 211 0 243.6c0 20.1 10.2 37.9 25.8 48.6 -0.7 4.7-1 9.4-1 14.2 0 40.7 23.9 78.6 67.3 106.6 41.6 26.9 96.6 41.7 154.9 41.7 58.3 0 113.3-14.8 154.9-41.7 43.4-28 67.3-65.9 67.3-106.6 0-4.3-0.3-8.7-0.8-13 16.6-10.5 27.7-28.9 27.7-49.8C496 211 469.3 184.5 436.4 184.5zM413.3 68.2c12.6 0 22.8 10.1 22.8 22.6 0 12.4-10.2 22.6-22.8 22.6s-22.8-10.1-22.8-22.6C390.5 78.3 400.7 68.2 413.3 68.2zM140.6 280.1c0-18.4 15.6-33.8 34.1-33.8s33.6 15.4 33.6 33.8 -15 33.3-33.6 33.3S140.6 298.5 140.6 280.1zM329.7 377.9c-17.3 17.1-43.9 25.4-81.4 25.4 -0.1 0-0.2 0-0.3 0s-0.2 0-0.3 0c-37.5 0-64.1-8.3-81.4-25.4 -5.3-5.2-5.3-13.8 0-19 5.3-5.2 13.9-5.2 19.2 0 11.9 11.8 32.3 17.5 62.2 17.5 0.1 0 0.2 0 0.3 0s0.2 0 0.3 0c30 0 50.3-5.8 62.2-17.5 5.3-5.2 13.9-5.2 19.2 0C334.9 364.2 334.9 372.7 329.7 377.9zM321.8 313.4c-18.5 0-34.1-14.9-34.1-33.3 0-18.4 15.6-33.8 34.1-33.8s33.6 15.4 33.6 33.8C355.4 298.5 340.3 313.4 321.8 313.4z" fill="#F8571D"/><path d="M422.5 70.2c8 3.5 13.5 11.4 13.5 20.6 0 9.8-6.3 18-15.1 21.2 -1.1 9.5-2.7 18.9-4.8 28.1 26.2-1.5 47-23 47-49.3 0-25-18.8-45.6-43.2-48.9C421.3 51.2 422.2 60.6 422.5 70.2z" class="a"/><path d="M496 243.6c0-32.6-26.7-59.1-59.6-59.1 -14.2 0-27.3 5-37.5 13.3 -0.7-0.5-1.5-0.8-2.3-1.3 -11.7 24.7-26.9 47.6-45.2 68.1 2.5 4.7 4 9.9 4 15.5 0 18.4-15 33.3-33.6 33.3 -6.7 0-13-2-18.4-5.4 -33.5 24.5-72.5 43-115.1 53.3 12.2 10.2 31.6 15.2 59.4 15.2 0.1 0 0.2 0 0.3 0s0.2 0 0.3 0c30 0 50.3-5.8 62.2-17.5 5.3-5.2 13.9-5.2 19.2 0 5.3 5.2 5.3 13.8 0 19 -17.3 17.1-43.9 25.4-81.4 25.4 -0.1 0-0.2 0-0.3 0s-0.2 0-0.3 0c-37.5 0-64.1-8.3-81.4-25.4 -3.2-3.1-4.4-7.4-3.8-11.5 -17.8 2.9-36.2 4.5-54.9 4.5 -22.4 0-44.2-2.2-65.3-6.3 11.4 18 28.1 34.3 49.7 48.3 41.6 26.9 96.6 41.7 154.9 41.7 58.3 0 113.3-14.8 154.9-41.7 43.4-28 67.3-65.9 67.3-106.6 0-4.3-0.3-8.7-0.8-13C484.9 282.9 496 264.5 496 243.6z" class="a"/><path d="M56 294.8c30.6 0 59.5-7.1 85.2-19.7 2.6-16 16.8-28.7 33.5-28.7 2.8 0 5.4 0.4 8 1.1 30.9-27 52.9-63.6 60.9-105.1l-5 15.8c-53.3 1.3-103.4 15-142.4 38.9 -10.1-7.8-22.8-12.5-36.6-12.5C26.8 184.5 0 211 0 243.6c0 20.1 10.2 37.9 25.8 48.6 0 0.1 0 0.2 0 0.2C35.6 293.9 45.7 294.8 56 294.8z" fill="#FF7F00"/></svg>