<svg xmlns="http://www.w3.org/2000/svg" viewBox="0 0 512 512"><style>.a{fill:#303C42;}.b{fill:#F2F2F2;}.c{fill:#D32F2F;}.d{opacity:0.1;}</style><path d="M512 256C512 114.8 397.2 0 256 0S0 114.8 0 256c0 69.7 30.3 121.5 89.6 154.2C101.4 492.9 137.4 512 256 512c115.3 0 152.6-17.9 165.4-94.8C481.4 386.2 512 332.1 512 256z" class="a"/><path d="M488.7 285.3C463 261.3 448 227.5 448 192c0-18.2 3.9-36 11.4-52.5 19.8 34.4 31.3 74.1 31.3 116.5C490.7 266.3 489.9 276 488.7 285.3z" class="b"/><circle cx="256" cy="149.3" r="106.7" class="b"/><path d="M52.6 139.5C60.1 156 64 173.8 64 192c0 35.3-14.8 68.8-40.3 92.9 -1.4-9.2-2.4-18.8-2.4-28.9C21.3 213.6 32.8 173.8 52.6 139.5z" class="b"/><path d="M256 490.7c-124.9 0-141-20.3-147.9-106.2 30.7-33.2 86.8-53.8 147.9-53.8s117.1 20.5 147.9 53.8C397 470.4 380.9 490.7 256 490.7z" fill="#FEE4D0"/><path d="M424.6 391c0.3-3.2 0.6-6.1 0.9-9.5 0.2-2.8-0.7-5.6-2.5-7.7 -33.9-39.8-97.9-64.5-167-64.5s-133 24.7-167 64.5c-1.8 2.1-2.7 4.9-2.5 7.7 0.1 0.8 0.1 1.4 0.2 2.2 -28.6-19.1-47.7-44.5-57.5-75.5C64.4 279.9 85.3 237.2 85.3 192c0-25.6-6.9-50.6-19.5-72.9 40.3-55.8 104.3-93 177.1-97.1C178.5 28.6 128 83.2 128 149.3c0 70.6 57.4 128 128 128s128-57.4 128-128c0-66.2-50.5-120.8-114.9-127.3 72.9 4 136.9 41.3 177.1 97.1 -12.6 22.4-19.5 47.3-19.5 72.9 0 45.8 21.4 89 57.4 117.2C474.7 344.6 455.1 371.7 424.6 391z" class="c"/><path d="M488.7 285.3C463 261.3 448 227.5 448 192c0-18.2 3.9-36 11.4-52.5 19.8 34.4 31.3 74.1 31.3 116.5C490.7 266.3 489.9 276 488.7 285.3z" class="b"/><path d="M424.6 391c0.3-3.2 0.6-6.1 0.9-9.5 0.2-2.8-0.7-5.6-2.5-7.7 -33.9-39.8-97.9-64.5-167-64.5s-133 24.7-167 64.5c-1.8 2.1-2.7 4.9-2.5 7.7 0.1 0.8 0.1 1.4 0.2 2.2 -28.6-19.1-47.7-44.5-57.5-75.5C64.4 279.9 85.3 237.2 85.3 192c0-25.6-6.9-50.6-19.5-72.9 40.3-55.8 104.3-93 177.1-97.1C178.5 28.6 128 83.2 128 149.3c0 70.6 57.4 128 128 128s128-57.4 128-128c0-66.2-50.5-120.8-114.9-127.3 72.9 4 136.9 41.3 177.1 97.1 -12.6 22.4-19.5 47.3-19.5 72.9 0 45.8 21.4 89 57.4 117.2C474.7 344.6 455.1 371.7 424.6 391z" class="c"/><linearGradient gradientUnits="userSpaceOnUse" x1="-38.2" y1="631.9" x2="-29.9" y2="623.7" gradientTransform="matrix(21.3333 0 0 -21.3333 996.3334 13791.667)"><stop offset="0" style="stop-color:#000;stop-opacity:0.1"/><stop offset="1" style="stop-color:#000;stop-opacity:0"/></linearGradient><path d="M256 490.7c124.9 0 141-20.3 147.9-106.2 -30.7-33.2-86.8-53.8-147.9-53.8s-117.1 20.5-147.9 53.8l105.1 105.1C225.9 490.3 240 490.7 256 490.7z" fill="url(#SVGID_1_)"/><path d="M197.3 362.7c-8.3 0-16 5.2-16 42.7s7.7 42.7 16 42.7 16-5.2 16-42.7S205.6 362.7 197.3 362.7z" class="a"/><path d="M314.7 448c8.3 0 16-5.2 16-42.7s-7.7-42.7-16-42.7 -16 5.2-16 42.7S306.4 448 314.7 448z" class="a"/><linearGradient gradientUnits="userSpaceOnUse" x1="-45.7" y1="639.3" x2="-24.1" y2="629.2" gradientTransform="matrix(21.3333 0 0 -21.3333 996.3334 13791.667)"><stop offset="0" style="stop-color:#FFF;stop-opacity:0.2"/><stop offset="1" style="stop-color:#FFF;stop-opacity:0"/></linearGradient><path d="M512 256C512 114.8 397.2 0 256 0S0 114.8 0 256c0 69.7 30.3 121.5 89.6 154.2C101.4 492.9 137.4 512 256 512c115.3 0 152.6-17.9 165.4-94.8C481.4 386.2 512 332.1 512 256z" fill="url(#SVGID_2_)"/><path d="M23.7 284.9c3.9-3.6 7.4-7.6 10.7-11.6 -4.3-1.5-8.4-3.3-12.6-4.9C22.3 274 22.9 279.5 23.7 284.9z" class="d"/><path d="M449.1 207.6c3.7 29.7 17.7 57.2 39.6 77.7 1.2-9.3 2-19 2-29.3 0-28.3-5.5-55.2-14.8-80.3C468.4 186.9 459.4 197.5 449.1 207.6z" class="d"/><path d="M55.9 280.1c-7.6 10.3-16.5 19.9-26.7 28.1 9.8 31 28.9 56.4 57.5 75.5 -0.1-0.8-0.1-1.4-0.2-2.2 -0.2-2.8 0.7-5.6 2.5-7.7 33.9-39.8 97.9-64.5 167-64.5s133 24.7 167 64.5c1.8 2.1 2.7 4.9 2.5 7.7 -0.2 3.3-0.6 6.3-0.9 9.5 30.5-19.3 50.1-46.4 59.5-81.8 -27.4-21.5-46.3-51.7-53.8-85.2 -57.8 45.5-145.5 74.6-243.6 74.6C140 298.7 95.8 291.9 55.9 280.1z" class="d"/></svg>