<svg xmlns="http://www.w3.org/2000/svg" viewBox="0 0 52 52"><path fill="#839594" d="M3 46h6v2H3zM43 46h6v2h-6z"/><path fill="#283238" d="M0 32h52v14H0z"/><circle cx="8" cy="39" r="3" fill="#e7eced"/><g fill="#38454f"><path d="M47 35a1 1 0 0 0-1 1v6a1 1 0 1 0 2 0v-6a1 1 0 0 0-1-1zM43 35a1 1 0 0 0-1 1v6a1 1 0 1 0 2 0v-6a1 1 0 0 0-1-1zM39 35a1 1 0 0 0-1 1v6a1 1 0 1 0 2 0v-6a1 1 0 0 0-1-1zM35 35a1 1 0 0 0-1 1v6a1 1 0 1 0 2 0v-6a1 1 0 0 0-1-1zM31 35a1 1 0 0 0-1 1v6a1 1 0 1 0 2 0v-6a1 1 0 0 0-1-1zM27 35a1 1 0 0 0-1 1v6a1 1 0 1 0 2 0v-6a1 1 0 0 0-1-1z"/></g><path fill="#38454f" d="M0 18h52v14H0z"/><circle cx="8" cy="25" r="3" fill="#e7eced"/><g fill="#283238"><path d="M47 21a1 1 0 0 0-1 1v6a1 1 0 1 0 2 0v-6a1 1 0 0 0-1-1zM43 21a1 1 0 0 0-1 1v6a1 1 0 1 0 2 0v-6a1 1 0 0 0-1-1zM39 21a1 1 0 0 0-1 1v6a1 1 0 1 0 2 0v-6a1 1 0 0 0-1-1zM35 21a1 1 0 0 0-1 1v6a1 1 0 1 0 2 0v-6a1 1 0 0 0-1-1zM31 21a1 1 0 0 0-1 1v6a1 1 0 1 0 2 0v-6a1 1 0 0 0-1-1zM27 21a1 1 0 0 0-1 1v6a1 1 0 1 0 2 0v-6a1 1 0 0 0-1-1z"/></g><path fill="#283238" d="M0 4h52v14H0z"/><circle cx="8" cy="11" r="3" fill="#e7eced"/><g fill="#38454f"><path d="M47 7a1 1 0 0 0-1 1v6a1 1 0 1 0 2 0V8a1 1 0 0 0-1-1zM43 7a1 1 0 0 0-1 1v6a1 1 0 1 0 2 0V8a1 1 0 0 0-1-1zM39 7a1 1 0 0 0-1 1v6a1 1 0 1 0 2 0V8a1 1 0 0 0-1-1zM35 7a1 1 0 0 0-1 1v6a1 1 0 1 0 2 0V8a1 1 0 0 0-1-1zM31 7a1 1 0 0 0-1 1v6a1 1 0 1 0 2 0V8a1 1 0 0 0-1-1zM27 7a1 1 0 0 0-1 1v6a1 1 0 1 0 2 0V8a1 1 0 0 0-1-1z"/></g><circle cx="15" cy="39" r="2" fill="#21c6f7"/><circle cx="15" cy="25" r="2" fill="#21c6f7"/><circle cx="15" cy="11" r="2" fill="#81ea1c"/></svg>