<svg xmlns="http://www.w3.org/2000/svg" viewBox="0 0 512 512"><style>.a{fill:#CDD4D5;}.b{fill:#FFF;}.c{fill:#687F82;}.d{fill:#9BAAAB;}.e{fill:#FF8C29;}.f{fill:#365558;}.g{fill:#FFD1A9;}</style><path d="M370.9 327.3L186.9 143.2c-3.1-3.1-8.2-3.1-11.3 0l-30.2 30.2c-1.5 1.5-2.3 3.5-2.3 5.7s0.8 4.2 2.3 5.7l184 184c1.5 1.5 3.5 2.3 5.7 2.3 2.1 0 4.2-0.8 5.7-2.3l30.2-30.2C374 335.5 374 330.4 370.9 327.3z" class="a"/><path d="M214 73.9L144.6 4.5c-3.1-3.1-8.2-3.1-11.3 0l-30.2 30.2c-3.1 3.1-3.1 8.2 0 11.3l51.7 51.7 -55.1 55.1L48.1 101c-3.1-3.1-8.2-3.1-11.3 0L6.6 131.2c-3.1 3.1-3.1 8.2 0 11.3l69.4 69.4c1.5 1.5 3.5 2.3 5.7 2.3 0.2 0 0.5 0 0.7 0l66.4-6c1.9-0.2 3.6-1 4.9-2.3l54.3-54.3c1.3-1.3 2.1-3.1 2.3-4.9l6-66.4C216.5 77.9 215.7 75.5 214 73.9z" class="a"/><path d="M167.2 76.5c-2 0-4.1-0.8-5.7-2.3l-21.3-21.3c-3.1-3.1-3.1-8.2 0-11.3 3.1-3.1 8.2-3.1 11.3 0l21.3 21.3c3.1 3.1 3.1 8.2 0 11.3C171.3 75.8 169.2 76.5 167.2 76.5z" class="b"/><path d="M509.7 369.5l-69.4-69.4c-1.7-1.7-4-2.5-6.4-2.3l-66.4 6c-1.9 0.2-3.6 1-4.9 2.3l-54.3 54.3c-1.3 1.3-2.1 3.1-2.3 4.9l-6 66.4c-0.2 2.4 0.6 4.7 2.3 6.4l69.4 69.4c1.6 1.6 3.6 2.3 5.7 2.3 2 0 4.1-0.8 5.7-2.3l30.2-30.2c3.1-3.1 3.1-8.2 0-11.3l-51.7-51.7 55.1-55.1 51.7 51.7c3.1 3.1 8.2 3.1 11.3 0l30.2-30.2C512.8 377.7 512.8 372.6 509.7 369.5z" class="a"/><path d="M161 157.8l-15.6 15.6c-1.5 1.5-2.3 3.5-2.3 5.7s0.8 4.2 2.3 5.7l184 184c1.5 1.5 3.5 2.3 5.7 2.3 2.1 0 4.2-0.8 5.7-2.3l15.6-15.6L161 157.8z" class="c"/><path d="M127.8 124.6l-28 28L48.1 101c-3.1-3.1-8.2-3.1-11.3 0L6.6 131.2c-3.1 3.1-3.1 8.2 0 11.3l69.4 69.4c1.5 1.5 3.5 2.3 5.7 2.3 0.2 0 0.5 0 0.7 0l66.4-6c1.9-0.2 3.6-1 4.9-2.3l27.7-27.7L127.8 124.6z" class="d"/><path d="M308.3 360.5c-1.3 1.3-2.1 3.1-2.3 4.9l-6 66.4c-0.2 2.4 0.6 4.7 2.3 6.4l69.4 69.4c1.6 1.6 3.6 2.3 5.7 2.3 2 0 4.1-0.8 5.7-2.3l30.2-30.2c3.1-3.1 3.1-8.2 0-11.3l-51.7-51.7 28-28 -53.5-53.5L308.3 360.5z" class="d"/><path d="M363.6 145.5l-24.1-24.1c-3.1-3.1-8.2-3.1-11.3 0L168.3 281.2c-3.1 3.1-3.1 8.2 0 11.3L192.4 316.7c1.6 1.6 3.6 2.3 5.7 2.3 2 0 4.1-0.8 5.7-2.3l159.9-159.9C366.7 153.6 366.7 148.6 363.6 145.5z" class="a"/><path d="M463.2 45.9L439 21.8c-2.4-2.4-5.9-3-9-1.6l-66.4 30.2c-0.9 0.4-1.7 0.9-2.3 1.6l-51.3 51.3c-3.1 3.1-3.1 8.2 0 11.3l60.3 60.3c1.6 1.6 3.6 2.3 5.7 2.3 2 0 4.1-0.8 5.7-2.3l51.3-51.3c0.7-0.7 1.2-1.5 1.6-2.3l30.2-66.4C466.2 51.8 465.5 48.3 463.2 45.9z" class="a"/><path d="M200.7 362.7L122.3 284.2c-3.1-3.1-8.2-3.1-11.3 0l-93.5 93.5c-3.1 3.1-3.1 8.2 0 11.3l78.4 78.4c1.6 1.6 3.6 2.3 5.7 2.3 2 0 4.1-0.8 5.7-2.3l93.5-93.5C203.8 370.9 203.8 365.8 200.7 362.7z" fill="#FD6A33"/><path d="M122.3 284.2c-3.1-3.1-8.2-3.1-11.3 0l-93.5 93.5c-3.1 3.1-3.1 8.2 0 11.3l38.9 38.9 104.8-104.8L122.3 284.2z" class="e"/><rect x="101.1" y="301.7" transform="matrix(-0.7071 -0.7071 0.7071 -0.7071 -79.6002 718.7493)" width="16" height="148.3" class="f"/><rect x="123.7" y="323.5" transform="matrix(-0.7071 -0.7071 0.7071 -0.7071 -54.8325 768.2274)" width="16" height="144" class="f"/><rect x="81.5" y="281.2" transform="matrix(-0.7071 -0.7071 0.7071 -0.7071 -97.0708 666.2763)" width="16" height="144" class="c"/><rect x="31.9" y="369.1" transform="matrix(-0.7071 0.7071 -0.7071 -0.7071 444.7211 561.5195)" width="148.3" height="7.5" class="c"/><path d="M351.2 133.1L180 304.3l12.4 12.4c1.6 1.6 3.6 2.3 5.7 2.3 2 0 4.1-0.8 5.7-2.3L363.6 156.8c3.1-3.1 3.1-8.2 0-11.3L351.2 133.1z" class="c"/><path d="M450.8 33.5L339.9 144.4l30.5 30.5c1.6 1.6 3.6 2.3 5.7 2.3 2 0 4.1-0.8 5.7-2.3l51.3-51.3c0.7-0.7 1.2-1.5 1.6-2.3l30.2-66.4c1.4-3 0.7-6.6-1.6-9L450.8 33.5z" class="d"/><path d="M74.4 484.9c1.3 0 2.7-0.3 3.9-1l27.2-15.1 -89.3-89.3L1 406.7c-1.7 3.1-1.2 7 1.3 9.5l66.4 66.4C70.3 484.1 72.3 484.9 74.4 484.9z" class="e"/><path d="M16.1 379.5L1 406.7c-1.7 3.1-1.2 7 1.3 9.5l32.9 32.9 25.2-25.2L16.1 379.5z" class="g"/><path d="M164.5 266.1c-2.3-2.3-5.8-3-8.8-1.7l-42.2 18.1 88.9 88.9 18.1-42.2c1.3-3 0.6-6.5-1.7-8.8L164.5 266.1z" class="e"/><path d="M164.5 266.1c-2.3-2.3-5.8-3-8.8-1.7l-42.2 18.1 44.1 44.1 33.7-33.7L164.5 266.1z" class="g"/><path d="M353.6 117.4c-2 0-4.1-0.8-5.7-2.3 -3.1-3.1-3.1-8.2 0-11.3l25.6-25.6c3.1-3.1 8.2-3.1 11.3 0 3.1 3.1 3.1 8.2 0 11.3l-25.6 25.6C357.7 116.6 355.6 117.4 353.6 117.4z" class="b"/></svg>