<svg xmlns="http://www.w3.org/2000/svg" viewBox="0 0 512 512"><circle cx="256" cy="256" r="201.4" fill="#0094CE"/><circle cx="256" cy="256" r="178.7" fill="#1EA4E9"/><circle cx="256" cy="256" r="154.2" fill="#A8EEFC"/><circle cx="256" cy="256" r="100.8" fill="#FF4A4A"/><path d="M256 329.8c-51.1 0-93.3-38-99.9-87.3 -0.6 4.4-0.9 8.9-0.9 13.5 0 55.7 45.1 100.8 100.8 100.8S356.8 311.7 356.8 256c0-4.6-0.3-9.1-0.9-13.5C349.3 291.8 307.1 329.8 256 329.8z" fill="#E7343F"/><path d="M324.5 339.8c3.2-2.6 3.7-7.4 1.1-10.6 -2.6-3.2-7.4-3.7-10.6-1.1 -16.6 13.6-37.6 21.1-59 21.1 -51.4 0-93.3-41.8-93.3-93.3 0-51.4 41.8-93.3 93.3-93.3s93.3 41.8 93.3 93.3c0 18.7-5.5 36.7-15.9 52.1 -2.3 3.4-1.4 8.1 2 10.4 3.4 2.3 8.1 1.4 10.4-2 12.1-17.9 18.5-38.8 18.5-60.5 0-59.7-48.6-108.3-108.3-108.3 -59.7 0-108.3 48.6-108.3 108.3 0 59.7 48.6 108.3 108.3 108.3C280.9 364.3 305.3 355.6 324.5 339.8z"/><path d="M504.5 248.5l-39.8 0C460.8 139.3 372.7 51.2 263.5 47.3l0-39.8c0-4.1-3.4-7.5-7.5-7.5 -4.1 0-7.5 3.4-7.5 7.5l0 39.8C139.3 51.2 51.2 139.3 47.3 248.5l-39.8 0c-4.1 0-7.5 3.4-7.5 7.5 0 4.1 3.4 7.5 7.5 7.5l39.8 0c2 56 26.7 109.3 68.3 147.2 3.1 2.8 7.8 2.6 10.6-0.5 2.8-3.1 2.6-7.8-0.5-10.6 -38.5-35-61.4-84.2-63.4-136l32.2 0c3.8 83.2 70.8 150.2 154 154l0 32.2c-36.2-1.4-70.9-12.7-100.9-33 -3.4-2.3-8.1-1.4-10.4 2 -2.3 3.4-1.4 8.1 2 10.4 32.5 21.9 70.1 34.2 109.3 35.5l0 39.8c0 4.1 3.4 7.5 7.5 7.5 4.1 0 7.5-3.4 7.5-7.5l0-39.8c109.2-3.9 197.3-92 201.2-201.2l39.8 0c4.1 0 7.5-3.4 7.5-7.5C512 251.9 508.6 248.5 504.5 248.5zM449.7 248.5l-32.2 0c-3.8-83.2-70.8-150.2-154-154l0-32.2C364.4 66.2 445.8 147.6 449.7 248.5zM109.3 256c0-34.7 12.3-68.3 34.6-94.7 2.7-3.2 2.3-7.9-0.9-10.6 -3.2-2.7-7.9-2.3-10.6 0.9C109.5 178.8 96.1 213 94.5 248.5l-32.2 0c3.9-100.9 85.3-182.3 186.2-186.2l0 32.2c-34.3 1.5-66.4 13.6-93.4 35.1 -3.2 2.6-3.8 7.3-1.2 10.5 2.6 3.2 7.3 3.8 10.5 1.2 26.2-21 57.9-32 91.5-32 80.9 0 146.7 65.8 146.7 146.7s-65.8 146.7-146.7 146.7C175.1 402.7 109.3 336.9 109.3 256zM263.5 449.7l0-32.2c83.2-3.8 150.2-70.8 154-154l32.2 0C445.8 364.4 364.4 445.8 263.5 449.7z"/></svg>