<svg xmlns="http://www.w3.org/2000/svg" viewBox="0 0 512 512"><style>.a{fill:#FFD33F;}.b{fill:#EA3836;}.c{fill:#FFAC3E;}.d{fill:#83B2B7;}.e{fill:#D62121;}</style><rect x="51.8" y="70.3" width="112.3" height="17.3"/><rect x="17.3" y="70.3" width="17.3" height="17.3"/><rect x="86.4" y="139.4" width="17.3" height="17.3"/><rect y="139.4" width="69.1" height="17.3"/><rect x="43.2" y="208.5" width="86.4" height="17.3"/><rect x="17.3" y="277.6" width="146.8" height="17.3"/><rect x="34.6" y="346.7" width="69.1" height="17.3"/><rect y="346.7" width="17.3" height="17.3"/><rect x="17.3" y="415.8" width="60.5" height="17.3"/><path d="M393 27.1h38.9v25.9c-27.5 0-54 10.9-73.5 30.3 -2.8-5.4-4.2-11.3-4.3-17.4C354.1 44.5 371.6 27.1 393 27.1z" fill="#383856"/><path d="M431.9 66c0.1 21.4-17.3 38.8-38.7 38.9 -14.8 0-28.2-8.3-34.8-21.5 19.5-19.4 45.9-30.3 73.5-30.3V66z" class="a"/><path d="M198.7 329.4l-71.4 64.2c-8.5 7.6-9.7 20.5-2.9 29.6l0 0c7.3 9.8 21.2 11.7 30.9 4.4 0.2-0.2 0.5-0.4 0.7-0.6l77.2-63.2 51.8-51.8 69.1 51.8 -13.8 96.7c-1.7 11.6 6.4 22.4 18 24 1 0.1 2 0.2 3 0.2h0.5c10.5 0.1 19.6-7.4 21.5-17.8 7-37.3 22.6-120.4 22.6-120.4l-69.1-60.5 -77.7-43.2L198.7 329.4z" class="b"/><path d="M456.6 200.4l-16.1 8.1 -51.8-69.1 -51.8-34.6L224.6 87.6l-48.5 48.3 26 29.7 39.7-34.8 60.5 17.3 -43.2 95 77.7 43.2 34.6-95 60.5 69.1 41.9-18.5L456.6 200.4z" fill="#91CECE"/><path d="M501.8 206.1l-0.2-0.5c-4.6-11.7-17.8-17.4-29.5-12.8 -0.6 0.3-1.2 0.5-1.8 0.8l-13.6 6.8 17.2 41.3 16.4-7.2C501.1 229.7 506.2 217.2 501.8 206.1z" class="a"/><path d="M160.2 151.7c-7.5 7.3-7.6 19.4-0.3 26.9 7.1 7.3 18.6 7.7 26.2 0.9l16-14 -26-29.7L160.2 151.7z" class="a"/><path d="M161.2 179.5c7.2 6.2 17.8 6.2 25 0l16-13.9 -10-11.4L161.2 179.5z" class="c"/><polygon points="241.9 113.5 192.1 154.2 202.1 165.5 241.9 130.8 302.3 148 311 130.8 " class="d"/><polygon points="437.2 239.2 380.1 173.9 371.4 191.2 431.9 260.3 473.8 241.8 467.2 225.8 " class="d"/><path d="M467.2 225.8l6.7 16 16.4-7.2c9.5-4.2 14.8-14.5 12.6-24.7L467.2 225.8z" class="c"/><polygon points="297.3 264.2 336.9 286.2 371.4 191.2 380.1 173.9 " class="d"/><path d="M343.4 474.8c-0.3-0.5-0.7-1.1-0.9-1.7C342.7 473.7 343 474.2 343.4 474.8z" class="b"/><path d="M349 480.9c-0.6-0.4-1.2-0.9-1.7-1.5C347.9 480 348.4 480.4 349 480.9z" class="b"/><path d="M345.9 478.1c-0.5-0.5-0.9-1.1-1.3-1.6C345 477.1 345.4 477.6 345.9 478.1z" class="b"/><path d="M341.5 470.9c-0.2-0.5-0.4-1.1-0.6-1.6C341.1 469.8 341.3 470.4 341.5 470.9z" class="b"/><path d="M340.4 466.5c-0.1-0.5-0.2-1-0.2-1.5C340.2 465.6 340.3 466.1 340.4 466.5z" class="b"/><path d="M356.2 484.2c-2.1-0.5-4-1.4-5.9-2.5C352.2 482.9 354.2 483.7 356.2 484.2z" class="b"/><path d="M342.4 473.1c-0.4-0.7-0.7-1.5-0.9-2.2C341.8 471.7 342.1 472.4 342.4 473.1z" class="e"/><path d="M347.3 479.4c-0.5-0.4-1-0.9-1.4-1.3C346.4 478.6 346.8 479 347.3 479.4z" class="e"/><path d="M350.4 481.7c-0.4-0.3-0.9-0.5-1.3-0.8C349.5 481.2 349.9 481.4 350.4 481.7z" class="e"/><path d="M340.9 469.3c-0.2-0.9-0.4-1.8-0.5-2.7C340.5 467.5 340.7 468.4 340.9 469.3z" class="e"/><path d="M340.2 465.1c-0.1-1.5-0.1-3 0.1-4.4C340.1 462.1 340.1 463.6 340.2 465.1z" class="e"/><path d="M344.6 476.5c-0.4-0.6-0.8-1.1-1.2-1.7C343.8 475.4 344.1 476 344.6 476.5z" class="e"/><polygon points="356.3 484.2 356.3 484.2 356.2 484.2 " class="e"/><path d="M336.9 286.2l-38.9-21.6 90.7 90.7 -30.2 129.3c0.9 0.2 1.9 0.3 2.8 0.3h0.5c10.5 0.1 19.6-7.4 21.5-17.8 7-37.3 22.6-120.4 22.6-120.4L336.9 286.2z" class="e"/><path d="M215.9 355.3l-90.4 69.2c7.8 9 21.3 10.1 30.5 2.6l77.2-63.2 51.8-51.8 -17.3-8.6L215.9 355.3z" class="e"/><path d="M423.2 53.4v3.9c0 21.5-17.4 38.9-38.9 38.9 -8.1 0-16.1-2.6-22.6-7.5 12.5 17.4 36.6 21.3 54 8.9 10.2-7.3 16.2-19.1 16.1-31.6V53C429 53 426.1 53.2 423.2 53.4z" class="c"/><path d="M431.9 27.1c0.4 9.5-2.7 18.9-8.6 26.3 2.9-0.2 5.7-0.4 8.6-0.4V27.1z" fill="#202033"/><path d="M509.6 202.4c-6.4-16.1-24.6-24-40.7-17.6 -0.8 0.3-1.6 0.7-2.4 1.1l-23.3 11.7 -47.5-63.3c-0.6-0.8-1.3-1.5-2.1-2l-51.8-34.6c-1-0.7-2.2-1.2-3.5-1.3l-112.3-17.3c-2.7-0.4-5.5 0.5-7.4 2.4L154.1 145.6c-10.8 10.8-10.8 28.3-0.1 39.1 0 0 0.1 0.1 0.1 0.1 10.3 10.2 26.8 10.8 37.8 1.2l52.2-45.7 46.3 13.2 -38.7 85.1 -59.4 84.9 -70.7 63.6c-12.9 11.1-14.3 30.4-3.3 43.3 11.1 12.9 30.4 14.3 43.3 3.3l77.8-63.7 46.5-46.5 59 44.3 -13.1 91.6c-1.2 8.6 1.3 17.3 7 23.8 5.8 6.7 14.3 10.4 23.1 10.3 14.7 0 27.3-10.4 30-24.8l22.6-120.4c0.6-3-0.5-6.1-2.8-8.1l-64.7-56.6 27.5-75.7 50.8 58.1c2.5 2.8 6.5 3.7 10 2.2l58.3-25.8C509 235.7 516.1 217.8 509.6 202.4zM486.7 226.6L434.2 249.8l-56.3-64.3c-3.1-3.6-8.6-3.9-12.2-0.8 -1.1 1-1.9 2.2-2.4 3.5l-34.6 95c-1.2 3.4-0.2 7.1 2.4 9.5l65.4 57.2 -21.7 115.6c-1.3 6.4-7 10.9-13.5 10.7 -7 0-12.6-5.6-12.6-12.6 0-0.6 0-1.2 0.1-1.8l13.8-96.7c0.4-3.1-0.8-6.2-3.4-8.1l-69.1-51.8c-3.4-2.6-8.2-2.2-11.3 0.8l-51.2 51.2 -77.2 63.2c-5.7 4.7-14.2 3.9-18.9-1.8 -4.6-5.6-4-13.8 1.4-18.6l71.4-64.2c0.5-0.4 0.9-0.9 1.3-1.5l60.5-86.4c0.3-0.4 0.6-0.9 0.8-1.4l43.2-95c2-4.3 0.1-9.5-4.3-11.4 -0.4-0.2-0.8-0.3-1.2-0.4l-60.5-17.3c-2.8-0.8-5.9-0.1-8.1 1.8l-55.7 48.8c-4.2 3.9-10.8 3.7-14.7-0.5 -3.9-4.2-3.7-10.8 0.5-14.7l61.3-61.1 106.1 16.3 49 32.7 51 67.9c2.5 3.3 7 4.4 10.8 2.5l29.7-14.9c3.5-1.8 7.6-2 11.2-0.6 3.9 1.5 7 4.7 8.4 8.6C496.4 216.1 493.3 223.7 486.7 226.6z"/><path d="M440.5 66v-38.9c0-4.8-3.9-8.6-8.6-8.6h-38.9c-26.2 0-47.5 21.3-47.5 47.5s21.3 47.5 47.5 47.5S440.5 92.2 440.5 66zM393 35.7h30.2v8.7c-22.1 0.4-43.4 8.4-60.3 22.7 0-0.4-0.1-0.8-0.1-1.2C362.8 49.3 376.3 35.7 393 35.7zM369.4 84.6c14.4-14.2 33.7-22.4 53.9-22.8v4.2c0.1 16.6-13.4 30.2-30 30.2C383.9 96.2 375.1 92 369.4 84.6z"/></svg>